<svg xmlns="http://www.w3.org/2000/svg" viewBox="0 0 700 700">
 <defs>
  <linearGradient id="blue"><stop stop-color="#9ac4ef"/><stop offset=".45" stop-color="#3b75c7"/><stop offset="1" stop-color="#173b7c"/></linearGradient><linearGradient id="blue2"><stop stop-color="#d9e8f6"/><stop offset=".38" stop-color="#6998d8"/><stop offset="1" stop-color="#284984"/></linearGradient><radialGradient id="core"><stop stop-color="#f2c96e"/><stop offset=".25" stop-color="#d7859f"/><stop offset=".64" stop-color="#923e71"/><stop offset="1" stop-color="#293873"/></radialGradient>
  <pattern id="stip" width="11" height="11" patternUnits="userSpaceOnUse"><circle cx="2" cy="2" r="1.5" fill="#f8efe1" opacity=".7"/><circle cx="8" cy="7" r=".8" fill="#f0a7bb" opacity=".72"/></pattern><filter id="edge"><feTurbulence baseFrequency=".012 .04" numOctaves="2" seed="11" result="n"/><feDisplacementMap in="SourceGraphic" in2="n" scale="7"/></filter>
  <path id="outer" d="M350 356C310 321 249 296 230 224C207 139 256 61 333 70C409 79 441 159 413 232C392 289 368 326 350 356Z"/><path id="inner" d="M350 365C321 337 283 310 282 264C280 210 315 169 354 177C397 186 414 230 395 275C380 312 363 342 350 365Z"/>
 </defs>
 <g filter="url(#edge)" stroke="#f3e6cf" stroke-opacity=".42" stroke-width="3"><use href="#outer" fill="url(#blue)" transform="rotate(-9 350 350)"/><use href="#outer" fill="url(#blue2)" transform="rotate(43 350 350)"/><use href="#outer" fill="url(#blue)" transform="rotate(91 350 350)"/><use href="#outer" fill="url(#blue2)" transform="rotate(137 350 350)"/><use href="#outer" fill="url(#blue)" transform="rotate(184 350 350)"/><use href="#outer" fill="url(#blue2)" transform="rotate(229 350 350)"/><use href="#outer" fill="url(#blue)" transform="rotate(276 350 350)"/><use href="#outer" fill="url(#blue2)" transform="rotate(321 350 350)"/></g>
 <g fill="url(#stip)" opacity=".6"><use href="#outer" transform="rotate(-9 350 350)"/><use href="#outer" transform="rotate(91 350 350)"/><use href="#outer" transform="rotate(184 350 350)"/><use href="#outer" transform="rotate(276 350 350)"/></g>
 <g filter="url(#edge)" opacity=".92"><use href="#inner" fill="#4e79c2" transform="rotate(20 350 350)"/><use href="#inner" fill="#285baf" transform="rotate(92 350 350)"/><use href="#inner" fill="#7198d3" transform="rotate(164 350 350)"/><use href="#inner" fill="#31569b" transform="rotate(236 350 350)"/><use href="#inner" fill="#6b8fc9" transform="rotate(308 350 350)"/></g>
 <circle cx="350" cy="350" r="116" fill="url(#core)" filter="url(#edge)"/><circle cx="350" cy="350" r="105" fill="url(#stip)" opacity=".78"/><g fill="#f3c96f"><circle cx="350" cy="350" r="7"/><circle cx="319" cy="329" r="5"/><circle cx="382" cy="326" r="5"/><circle cx="389" cy="367" r="6"/><circle cx="332" cy="389" r="5"/><circle cx="305" cy="367" r="4"/></g>
</svg>
